<svg width="102" height="61" viewbox="0 0 102 61" xmlns="http://www.w3.org/2000/svg">
    <path fill="#FF4C00" d="M31.07 60.70c-.14 0-.28-.02-.41-.07l-.11-.05-.19-.11-.02-.01-.09-.06-.03-.01c-.09-.03-.18-.08-.24-.15-.08-.04-.16-.10-.21-.17-.06-.05-.13-.13-.19-.22l-.04-.06c-.05-.06-.09-.14-.11-.22l-.03-.07-.01-.02-.01-.02-.06-.12-.01-.03-.08-.16-.02-.06c-.13-.40.04-.74.12-.90l-.04-.16-.09-.12-.12-.18-.08-.10-.41-.73-.06-.17-.05-.13-.02-.07-.02-.06-.04-.12-.00-.01-.06-.12-.03-.09-.05-.08-.11-.14-.11-.12-.11-.09-.32-.32-.14-.16-.12-.18-.08-.10-.10-.18-.03-.06-.00-.01-.06-.13-.00-.02c-.05-.07-.08-.15-.10-.24l-.06-.13-.22-.74c-.08-.28-.01-.53.02-.69l.01-.03-.00-.02-.01-.04-.07-.17-.02-.04-.07-.21-.03-.18-.02-.17v-.03l-.02-.13-.02-.09-.02-.10-.02-.11-.02-.12-.06-.53-.02-.05-.00-.01-.04-.07-.12-.17-.13-.15-.09-.12-.09-.16-.00-.00-.05-.08-.10-.17-.00-.00-.11-.19-.00-.01c-.04-.06-.08-.13-.09-.21l-.02-.08-.06-.19-.02-.10-.00-.03-.00-.01-.05-.14-.01-.02-.01-.02-.13-.17-.13-.11-.14-.18-.07-.06c-.06-.05-.12-.12-.16-.20l-.03-.04c-.06-.05-.12-.11-.16-.19l-.10-.18-.00-.02c-.07-.07-.12-.17-.14-.27l-.01-.02c-.04-.06-.07-.14-.08-.23l-.00-.04c-.03-.07-.05-.16-.05-.24v-.28c-.06-.35-.04-.87.02-1.19v-.02c0-.14.04-.27.12-.37l.00-.02.09-.18.07-.15.03-.17.02-.10.04-.15.01-.09.02-.12.02-.13.03-.16.02-.10.05-.16c.01-.09.04-.18.09-.26.02-.12.09-.22.18-.30l.06-.09.10-.14.11-.13.13-.15.14-.12.02-.02.09-.11.02-.03.02-.06.03-.39-.03-.13-.01-.03-.06-.14v-.00l-.08-.13-.03-.07-.11-.19-.22-.60c-.12-.4-.00-.70.06-.88l.03-.07-.00-.00-.05-.12-.04-.09-.01-.03-.08-.18-.05-.13-.06-.15-.05-.12-.02-.08-.01-.02-.01-.03-.04-.06-.08-.14c-.05-.06-.08-.13-.10-.20l-.01-.02.83-1.5.02.08.03.09.02.07.03.12.04.11.02.08.02.07.03.11.03.15.00.02.06.14.07.13.11.19.01.03.08.19.01.05.04.11.02.05.05.12.00.01.04.11.02.05.00.02.06.10.05.12.05.14c.03.07.04.15.04.23v.13c0 .22-.07.41-.12.54l-.02.07.15.41.09.16.00.01.05.09.02.04.10.20.02.05.06.14.03.12.00.02c.10.34-.01 1.06-.05 1.20l-.07.15-.00.00c-.02.08-.06.16-.11.23l-.10.15-.15.17-.02.01-.13.12-.10.12-.09.11-.03.05-.06.08-.03.07-.05.19-.03.12-.02.09-.02.13-.04.19-.01.10-.03.14-.02.10-.02.10c-.01.09-.05.18-.10.26l-.02.08-.00.02c-.02.11-.06.21-.14.29l-.02.06-.02.08c-.03.13-.05.55-.02.68l.02.16v.16l.02.11.00.04.02.05.04.10.08.14.09.15.13.16.03.04.11.09.14.17.12.10c.06.05.11.12.14.20l.07.09.05.07.05.06c.05.06.08.13.11.21l.07.20.00.02.05.16.01.05.01.08.05.10.00.02.03.06.06.09.09.16.02.04.04.06c.07.06.13.14.17.22l.14.18.11.18.05.10.01.03c.06.07.09.17.10.27l.06.54.04.15.02.10.02.10.03.14.03.18v.04l.02.15.01.06.04.12.04.09.06.13.02.06c.09.29.02.55-.01.73l-.02.10.16.50.04.08.07.19.02.06.01.03.05.09.02.03.04.09.00.00.09.12.07.10.05.07.01.00.06.06.14.16c.07.03.14.09.18.14l.01.02.10.12.02.02.15.17.08.14.01.02.11.18.03.11.05.1.06.18-.00.00.04.12.02.08.02.08.06.18.29.52.10.14.04.06.04.05.09.10c.00.00.41.69.22 1.26l-.08.20-.00.01.00.01.01.03.05.08.04.09.00.00.07.16.03.04.05.04.05.03c.09.03.18.08.25.15l.04.03.05.03m.00 0l.07.02.17-.07.23-.10.13-.03.58-.06.08-.02.14-.05.13-.05.07-.02.14-.04.19-.03h.51l.18-.02h.36l.16.02c.20.05.45.06.60.02l.16-.02h.04l.03-.01.05-.02.01-.00.11-.05.02-.00c.07-.05.16-.09.25-.10l.41-.06.01-.00.12-.05.05-.02.01-.00.13-.07.15-.08.05-.03.07-.05.15-.11.07-.04.17-.10.02-.01.08-.06.09-.07.17-.14.02-.02.35-.34.16-.12.17-.13.04-.02.02-.02c.05-.07.12-.13.20-.17l.03-.04.09-.1.11-.14.09-.11.02-.02.11-.16.02-.03.06-.1.05-.07.05-.07.00-.00.12-.19.07-.09.08-.10c.04-.07.10-.13.16-.18l.08-.09.16-.13c.06-.06.13-.11.21-.14l.16-.10.04-.04.06-.08.03-.07.04-.14c.01-.10.05-.20.10-.28l.01-.03.01-.02.05-.12.05-.13.11-.37-.03-.04c-.04-.19-.13-.56.09-.89.14-.30.46-.49.69-.61l.08-.03.02-.01.14-.06.17-.06.01-.00.02-.01.18-.07.14-.05.09-.02.02-.01.21-.08v-.00l.05-.02.07-.04.08-.05.05-.05.01-.02.01-.15.02-.12v-.01l.03-.20.06-.19c.01-.13.03-.35.02-.42l-.06-.21-.11-.37-.03-.14-.00-.06-.04-.13-.04-.23c-.10-.20-.26-.54-.13-.93l.10-.19.03-.06.11-.17.06-.08.17-.15.16-.12.06-.07.18-.15.17-.15.13-.09.16-.08.13-.08.07-.07.06-.05.13-.16.23-.20c.15-.15.33-.33.58-.49l.13-.06.03-.01.06-.03.13-.06.01-.00.20-.09.04-.02.13-.05.09-.03.07-.02.09-.02.07-.02.12-.05.05-.02.01-.00.09-.05.07-.05.17-.1.02-.01.05-.03.12-.14.07-.06.00-.00.12-.15.03-.03.14-.17.00-.00.09-.12.00-.00.10-.18.02-.06.03-.09.02-.07-.00-.00-.09-.34-.02-.17v-.26l-.00-.00c-.07-.26-.03-.59.00-.75v-1.16l.00-.10.06-.36-.13-.15-.07-.05c-.08-.06-.14-.14-.18-.23l-.08-.14-.13-.40-.02-.11-.02-.11-.01-.05-.02-.08-.02-.07-.02-.08-.02-.05-.01-.03c-.09-.27-.04-.60-.00-.77v-.15c-.02-.10-.03-.20-.01-.30l.02-.09.02-.12-.00-.02-.06-.09-.04-.07-.02-.04c-.13-.20-.36-.70-.22-1.16l.00-.02c.01-.09.05-.18.10-.25l.02-.06.00-.01c.01-.09.04-.17.09-.26l.02-.04.06-.18.10-.18.08-.11.05-.07.06-.10.09-.16.02-.07.06-.12.08-.18.03-.10.08-.17.08-.19.05-.16c.03-.08.07-.16.13-.22l.15-.16.10-.08c.06-.06.13-.11.21-.14l.17-.13.23-.25.1-.08.06-.06.01-.01.02-.04.10-.14.05-.07.12-.21.10-.13.02-.02.13-.18.07-.09.15-.17.01-.02c.03-.07.08-.14.14-.19l.03-.03.11-.14.12-.11.13-.16.06-.05.11-.14.43-.42c.05-.07.12-.12.20-.16l.15-.16.14-.11c.06-.07.15-.13.24-.17l.02-.01.03-.02c.06-.07.13-.12.22-.16l.06-.04.20-.13.10-.06.01-.00.15-.13.14-.11.02-.02.06-.05.11-.14.32-.3.12-.17.14-.12.07-.10.10-.11.07-.09.08-.11.08-.10.08-.11.05-.06.02-.04.10-.15.08-.16.09-.16.09-.14.04-.06.06-.10.01-.02.10-.18.07-.13.03-.06.02-.07v-.00l.03-.21.02-.08c.01-.09.05-.19.10-.26l.03-.08.04-.10.00-.02.05-.12.09-.16.07-.13.02-.04.00-.01.03-.09.03-.07v-.00c.02-.09.06-.18.11-.26l.04-.09.07-.16.09-.17.01-.04.07-.15.02-.03.00-.02.02-.07.10-.20.05-.10.01-.03.02-.04.06-.53.02-.17c.04-.14.09-.32.08-.44l-.06.02-.19.06-.00.00-.01.00-.21.07h-.00l-.03.01-.13.05-.17.04-.05.00-.22.04-.18.02h-.02l-.09.02-.10.02-.04.01-.17.04-.10.01-.17.04-.23.02-.18.09c-.13.07-.30.17-.52.24-.15.04-.35.04-.56.03l-.06-.00-.1.04-.01.00-.06.03c-.14.07-.77.34-1.22.21l-.09-.03c-.11-.02-.21-.07-.3-.14l-.03-.02-.05-.03-.18-.13-.13-.15-.11-.13-.02-.02c-.06-.05-.12-.12-.16-.19l-.14-.12c-.09-.08-.16-.20-.19-.32l-.00-.01c-.06-.11-.08-.25-.05-.38l.05-.26-.03-.03-.16-.12-.03-.04-.15-.11-.18-.20-.15-.16-.05-.05-.14-.11-.09-.06-.16-.12-.00-.00-.13-.10-.20-.22-.16-.12-.02-.01-.15-.08-.13-.06-.15-.08-.04-.02-.04-.01c-.08-.02-.16-.06-.23-.11l-.17-.11-.09-.06-.14-.11-.15-.17-.02-.01c-.08-.06-.15-.15-.21-.25l-.00-.01-.11-.18c-.04-.06-.07-.14-.08-.22v-.00l-.04-.11-.02-.07-.05-.14-.02-.11-.01-.02-.07-.17-.02-.10-.00-.00-.06-.13-.03-.10-.07-.11-.06-.08-.06-.08-.04-.04-.09-.07-.10-.07-.14-.11-.11-.08-.14-.12-.02-.02-.08-.06c-.07-.05-.13-.12-.17-.20l-.10-.16-.02-.05-.06-.15-.03-.09-.02-.07-.03-.13-.02-.11-.03-.15-.03-.16-.02-.18v-.01l-.02-.17v-.01l-.02-.16-.02-.09-.02-.10-.02-.11-.00-.02-.01-.02-.05-.14-.02-.07-.02-.07-.03-.11-.02-.13-.03-.07-.06-.07-.08-.05-.07-.04-.18-.09-.1-.06-.13-.08-.12-.09-.11-.14c-.07-.06-.13-.15-.17-.25l-.14-.39-.03-.16-.01-.18-.02-.07-.02-.04-.02-.04-.04-.06-.06-.08-.12-.16-.10-.17-.08-.14-.01-.03-.1-.15-.07-.12-.04-.08-.03-.04-.09-.13-.01-.01-.12-.19-.02-.04-.01-.02-.03-.05c-.05-.06-.09-.13-.12-.21l-.00-.01-.11-.19-.01-.03-.06-.11-.01-.03-.09-.18-.10-.18-.06-.14-.07-.21-.03-.26c-.00-.08.00-.17.03-.26.09-.26.29-.43.60-.49l.01-.04.01-.07v-.05l.03-.19.04-.18.00-.04.03-.13.00-.05-.02-.05-.02-.07-.04-.10-.02-.08-.08-.16-.00-.01-.06-.12-.13.00-.19.03h-.18l-.17.02h-.11c-.08 0-.16-.01-.24-.04l-.09-.00c-.12-.01-.23-.05-.32-.12l-.04-.02-.13-.02-.32-.07-.2.03h-.01l-.28.12-.15.10-.09.06-.34.16-.14.06c-.31.10-.74-.01-.95-.09l-.23-.02-.11-.02-.90-.24-.17-.02c-.06-.02-.14-.03-.33-.03h-.27l-.20-.03c-.11-.01-.22-.06-.31-.14l-.10-.06-.13-.08-.03-.01-.23-.01-.13-.02-.20-.05-.18-.05-.06-.01-.20-.08-.15-.08-.16-.12-.03-.04-.17-.14c-.08-.03-.24-.07-.34-.07l-.33.09-.13.06-.02.00-.08.04-.10.04-.05.05-.02.02-.00.00-.01.07.00.02c.04.17.10.44.01.74l-.07.15-.10.19-.14.17-.01.01c-.07.09-.16.16-.27.20l-.00.00-.06.04-.10.05c-.12.05-.27.07-.43.07-.11 0-.39-.01-.61-.13l-.09-.05-.10-.06-.18-.13-.14-.11-.20-.11-.02-.01-.01-.00h-.00l-.20-.03-.09-.02-.15-.02h-.04l-.22-.04-.18-.01c-.10-.00-.20-.04-.29-.09-.08-.02-.16-.07-.23-.13l-.02-.01c-.12-.06-.24-.16-.30-.28l-.10-.15-.06-.12-.04-.09-.06-.13-.00-.00-.03-.01-.04-.02-.08-.03-.00.01-.18-.07-.00-.00-.19-.08-.30-.09h-.60l-.20-.03-.18-.05c-.10-.02-.19-.06-.27-.12l-.12-.05-.13-.06c-.08-.03-.17-.08-.23-.14l-.09-.07-.15-.12-.04-.05-.09-.06-.00-.00c-.08-.02-.17-.06-.22-.11l-.16-.13-.13-.14c-.11-.18-.18-.52-.08-.79l.12-.20.07-.09.06-.08.17-.15.00-.00.14-.12-.04-.07c-.04-.08-.10-.18-.13-.30-.06-.20-.03-.38.00-.52l-.07-.06-.12.03-.00-.00-.07.04c-.18.07-.57.14-.85.14-.12 0-.22-.01-.31-.04l-.01-.00-.14-.02h-.00l-.18-.02h-.28l-.14-.01-.09.01-.09.02-.06.02-.12.03-.02.01c-.32.09-.84-.02-1.02-.09l-.02-.01-.10-.01-.11-.02h-.08l-.17.02h-.10l-.17.02h-.09l-.13.02-.17.03-.15.02-.68.02-.18.03-.08.02-.07.02-.07.02-.07.02h-.00l-.10.04-.14.07-.02.00-.15.07-.01.00-.20.09-.45.10-.09.04-.10.05-.11.07-.12.07-.06.03-.14.06-.08.02-.21.04h-.03c-.08.02-.16.03-.24.02l-.41-.05c-.10-.01-.19-.04-.27-.10l-.00-.00h-.02l-.18-.02h-.14l-.17-.02h-.26c-.09 0-.18-.02-.26-.05l-.00-.00c-.12-.01-.23-.06-.32-.14l-.01-.01-.18-.13-.02.03-.06.10-.00.01-.08.13-.06.10c-.04.07-.09.14-.16.20l-.00.00-.13.16-.04.03c-.05.07-.11.13-.19.17-.05.06-.13.11-.20.14l-.11.06-.11.05-.17.07-.16.06-.01.00-.15.05-.00.00-.16.05-.00.00-.03.01-.13.05-.09.06-.14.10-.16.12-.08.09-.08.13-.06.09-.08.13-.13.17-.01.01-.12.15-.06.12-.04.08-.02.14v.28l-.02.18c-.00.12-.04.23-.10.32l-.10.18-.03.05c-.03.08-.09.15-.15.2l-.02-.02-.03.01.02.02-.22.24c-.11.11-.22.19-.31.26-.07.10-.18.17-.31.21l-.03.02-.10.06-.12.05-.07.05-.08.05-.07.04-.15.10-.13.06-.02.00-.20.09-.07.02-.06.02-.21.05-.16.02-.16.02-.07.01-.02.00-.01.00-.10.11-.09.14-.04.06-.11.17-.10.13-.15.12c-.07.09-.18.17-.28.21l-.19.10-.01.00-.10.05-.03.02-.04.07-.06.09-.05.07-.01.02c-.03.08-.07.16-.14.23l-.02.07-.07.15-.02.06-.08.17c-.04.09-.10.18-.18.24l-.00.00v.00l-.07.09c-.05.07-.12.13-.20.17l-.01.02-.15.13-.01.01-.10.08c-.03.07-.08.13-.14.18l-.00.00-.08.11-.09.12-.02.04-.09.13-.00.00c-.02.09-.07.18-.14.25l-.10.16-.09.12-.27.25-.11.15-.05.07-.04.15.01.03.03.08.03.05c.10.20.34.73.20 1.15l-.07.19-.06.16.03.15.02.15.02.82-.02.20-.03.17c-.01.10-.05.19-.11.27l-.03.09-.02.05-.05.13-.03.06-.01.02-.03.07-.03.06-.01.03-.02.05-.02.09-.08.16-.00.01-.11.48c-.02.10-.07.19-.14.27l-.09.18-.12.19-.11.14-.01.01-.07.10.01.04.13.46.02.12c.02.31-.04.57-.09.76-.04.15-.06.23-.04.28l.02.09.00.02.05.08.13.16.06.04.06.04c.07.04.14.09.19.16l.03.02c.09.08.16.18.20.30l.05.10.02.04.02.04.15.18.08.07c.07.06.13.14.16.23l.01.01.02.02c.06.06.12.13.15.21l.01.00.14.15.11.09.13.15.12.16.12.19.01.03c.05.06.1.14.12.22l.02.04.06.14.04.17.03.38.04.14.01.06.01.04.02.06.06.14.02.04.06.14.05.07.01.01.04.04.18.10.01.00c.08.03.16.07.22.14l.01.01.17.12.13.10.19.21.18.14.02.03.16.12.03.04.12.09.09.07.13.09.69.73c.07.03.14.08.19.14l.04.03.08.05.10.06c.07.02.15.06.21.12l.08.05.00.00.16.08.08.03.03.01.07-.02.16-.07.12-.05.16-.06.08-.01.17-.06.02-.00.02-.01.14-.06.14-.04.06-.01.16-.04.17-.03.15-.02.71-.02c.41-.08 1.01.00 1.38.11l.15.01c.08.00.16.03.22.07l.10.02.09.02.12.05.05.02.03-.00.10-.02.06-.03.13-.05.07-.02.09-.03.13-.03.04-.01.09-.02.08-.02.11-.04.05-.02.14-.06.05-.02.07-.03.12-.05.03-.01.18-.07.48-.10.06-.03.03-.01.06-.03.04-.02.04-.02.1-.04.22-.08.18-.05.11-.02.18-.03h.01l.17-.02h.21l.20-.01.23.00c.18-.04.54-.06.68-.06.14 0 .25.01.34.03l.02.00h.03l.19.02c.11.01.21.05.30.11l.08.02.19.10.14.11.17.14h-.00l.11.13.08.10c.08.07.15.16.18.26l.06.12.00.02c.04.06.07.13.09.21l.03.11.01.05.04.10.09.12.03.02.06-.00.21-.04h.07l.17-.02h.07l.17-.02h.01l.13-.02.21-.01.16-.03.33-.02.23.02.15.03c.25.08.41.25.50.35.06.04.13.10.17.17l.05.04.05.03c.09.03.17.09.23.16l.07.08.1.10.09.11c.31.49.24 1.09.15 1.45v.10l-.02.19c-.00.09-.04.18-.08.27l-1.34.05c.00-.11.04-.21.1-.30l.05-.14.03-.1.02-.14v-.00l.02-.17c.06-.21.06-.36.04-.46l-.09-.12-.00-.00-.01-.02-.07-.05-.05-.03c-.10-.04-.19-.11-.25-.19l-.09-.1-.01-.01-.06-.06-.06-.00-.17.03-.21.01-.21.04h-.02l-.17.02h-.07l-.17.02h-.06l-.01.00c-.09.02-.19.03-.32.03-.06 0-.41-.00-.61-.08l-.14-.08-.09-.05c-.08-.04-.15-.09-.20-.15l-.04-.06-.07-.07c-.06-.05-.11-.12-.14-.19l-.06-.11-.06-.14-.05-.13-.04-.16-.03-.07-.00-.00-.06-.12-.03-.04-.10-.12-.13-.10-.07-.03-.17-.02h-.03l-.23-.04-.32.02c-.10.03-.23.03-.31.03l-.23-.00-.14.01h-.10l-.17.02h-.02l-.09.02-.09.02-.09.02h-.00l-.08.03-.07.03-.05.02-.05.02-.05.03-.04.02-.16.06-.47.10-.10.04-.15.06-.09.04-.14.06-.04.01-.16.07-.14.05-.07.02-.09.03-.13.03-.05.01-.08.02-.07.02-.16.06-.08.01-.10.04c-.34.10-.72-.01-.90-.09l-.23-.04-.13-.04-.16-.03c-.23-.07-.75-.11-.80-.10l-.14.02-.60.02-.18.03-.13.02-.05.01-.12.03-.04.01-.18.06h-.00l-.13.05-.1.02-.05.02-.14.05-.10.04-.03.01c-.27.10-.72.15-.99.06l-.16-.08-.05-.02-.01-.00-.16-.05-.05-.02.00-.01-.00.00-.00.00-.09-.05-.19-.10c-.08-.03-.15-.08-.21-.14l-.00-.00-.08-.05-.07-.04-.17-.12-.12-.09-.70-.74-.14-.10-.09-.06-.15-.12-.03-.03-.16-.12-.02-.03-.14-.10-.20-.22c-.07-.03-.13-.08-.18-.14l-.05-.03-.05-.03c-.09-.03-.18-.08-.25-.15l-.04-.03c-.10-.04-.18-.11-.25-.19l-.07-.06c-.08-.07-.15-.16-.19-.26l-.07-.11-.06-.14-.00-.02-.07-.16-.01-.03-.07-.17-.02-.08-.03-.12-.03-.15-.03-.37-.02-.07-.05-.12-.07-.12-.1-.13-.07-.10-.02-.01-.07-.06-.12-.13-.05-.04-.15-.18-.08-.15-.01-.02-.00-.00-.13-.16-.08-.07-.14-.17-.10-.14-.08-.14-.02-.04-.03-.07-.03-.06-.01-.01-.04-.02-.07-.04c-.07-.03-.14-.08-.19-.14l-.30-.38-.09-.15-.06-.10c-.06-.09-.09-.20-.09-.31v-.02c-.08-.35-.00-.66.05-.88l.05-.27-.07-.24-.04-.08-.06-.15-.04-.22v-.24c0-.11.03-.22.08-.31l.04-.09.05-.08.12-.15.00-.00.14-.16.09-.12.05-.07.00-.01.06-.14.10-.45c.02-.08.06-.16.11-.23l.03-.11c.02-.08.06-.15.12-.22l.02-.04.01-.02.04-.08.02-.04.02-.03.05-.14.00-.00.02-.17.02-.15-.01-.46-.03-.14-.00-.01c-.12-.42.04-.82.13-1.03l.01.02-.06-.20-.09-.14-.04-.08-.04-.11-.02-.06-.02-.05c-.16-.52.19-1.18.19-1.18l.06-.09.01-.03.1-.14.09-.12.28-.26.08-.12.09-.14.03-.05.12-.20.04-.07.10-.14.07-.09.13-.16.00-.00.11-.14.18-.17c.05-.07.12-.13.20-.17l.01-.02.14-.12.07-.09.01-.03.08-.16.04-.12c.02-.08.07-.15.12-.21.03-.10.08-.19.16-.27l.02-.03.05-.08.05-.07c.04-.07.09-.13.15-.18.05-.06.12-.12.20-.16l.08-.05.18-.10.02-.00.09-.05.06-.04.01-.01.06-.05.10-.13.05-.07.01-.03.11-.19.30-.32c.06-.07.14-.12.23-.15l.09-.04.21-.07.18-.03.17-.02.12-.02.04-.01.09-.03.06-.02.03-.01.02-.00.10-.06.15-.09.03-.01.08-.05.17-.10.10-.06.03-.02.09-.06.05-.03.23-.17.20-.22.06-.06.00-.00.04-.05.00-.00.02-.18v-.27l.03-.20c.01-.09.05-.18.10-.26l.00-.00.07-.17.09-.18c.03-.08.08-.16.15-.22l.14-.16h.00l.1-.12.03-.05.05-.09.08-.14.28-.30.14-.11c.07-.08.15-.14.25-.18l.01-.00.08-.05.06-.04.12-.07.13-.05.19-.06.16-.05.16-.05.12-.04.07-.03.11-.05c.05-.06.11-.11.18-.15l.06-.08-.00-.00.01.00.07-.07.05-.03.11-.17.09-.14.05-.08c.02-.08.07-.15.12-.21l.10-.13.21-.19c.11-.10.26-.15.41-.15h.24c.14 0 .29.05.40.14l.19.16.13.16.00.00.03.01.10.02h.25l.17.02h.15l.18.03c.11.00.21.04.3.10l.05.01.15.01.10-.00h.02l.02-.00.08-.02.01-.00.14-.08.13-.07.11-.06.18-.07.44-.09.11-.05.00-.00.15-.08.02-.00.06-.04.20-.09.13-.05.09-.03.07-.02.14-.04.17-.03.16-.03.68-.02.17-.03.14-.02.18-.02h.09l.17-.02h.10l.17-.02h.44c.08 0 .16.01.23.04l.09.00c.10.01.19.04.28.09l.10.02.11-.02.04-.01.14-.03.14-.03.02-.00.23-.03.28.03h.39l.18.02h.01l.19.03.17.04.20-.03.07-.03.19-.06.04-.02c.16-.06.41-.08.52-.08.10 0 .19.01.28.03l.11.05c.09.02.18.07.26.14l.14.12.03.02c.08.04.15.1.20.16.09.07.17.18.22.28.14.30.04.60-.01.75.12.22.33.64.10 1.14l-.09.14-.01.02-.13.18-.07.07.11.1.04.05.14.11.00.00.01.00c.08.02.16.07.22.13l.06.01.10.04h.00l.10.02.08.02h.51l.17.02.55.16.15.07.15.08.04.02.03.01.14.05.02.01c.08.02.16.05.22.10l.16.14c.08.06.14.15.18.25l.09.18.02.06.05.10.01.01.00.00.09.03.20.01.13.02h.03l.17.02.20.03.09.02c.09.01.18.04.25.10l.10.03.16.07c.09.02.17.07.24.14l.12.10.14.12.06.04.00.00.03-.01.02-.01.03-.03-.02-.06c-.04-.17-.10-.40-.02-.66l.00-.02c.01-.08.04-.16.08-.23.03-.07.07-.14.13-.20l.13-.15.07-.05.11-.10c.07-.07.16-.14.26-.17l.04-.02.11-.05.02-.00.17-.08.49-.13c.43-.12 1.18.10 1.43.27l.11.10.14.11.02.03.08.03.13.04.06.00.10.02.17.04.15.01c.10.00.20.04.28.09l.16.08.14.08.02.01.04.01.09.02h.09c.18 0 .37.00.57.05h.09l.17.02 1.02.27.21.03.08.02.19.06.17-.08.18-.12.12-.08.53-.22.18-.04.01-.00c.32-.09.86.03 1.08.10l.12.04.12.05.02.01.06.01.15.01.05-.00h.18l.14-.02.58-.03c.16-.01.31.04.43.15.08.04.16.10.21.17l.08.10.09.12.08.14.06.13.00.01.07.14.03.11.05.1c.04.07.06.15.07.24.06.17.14.44.05.72l-.00.00-.04.16-.00.06-.02.11-.02.14-.02.12-.02.09c-.05.20-.14.58-.44.78l.03.09.04.09.00.01.08.17.00.03.08.14.11.20.01.03.00.01.07.10.00.00.10.15.03.04.08.10.09.16.07.12.1.17.00.00.10.16.08.14.03.05.01.01c.08.07.15.16.18.25l.07.13.05.13.04.17.02.28.06.17.11.08.01.00.13.07.02.00.19.10.05.03.18.13.12.13c.09.07.18.18.22.28l.01.02c.04.06.08.14.09.22l.02.14.04.11.02.08.02.07.06.19.00.03.05.16.02.10.03.18.02.17v.01l.02.17v.01l.02.16.02.13.02.08.03.11.01.06.02.07.02.06.02.04.12.08.11.08.14.11.10.07.13.10.14.13.05.04c.07.06.13.13.17.22.06.06.12.14.15.23l.09.15.03.11.04.08.07.17.02.09.01.02.08.19.01.07.02.05.06.14.02.07.03.12.03.08.02.03.07.06.09.10.14.10.17.09.15.09.06.01.16.07.18.10.11.06c.08.03.15.08.21.14l.12.09.19.21.18.13.01.02.10.07.14.11c.07.04.13.09.17.15l.02.03.09.10.07.06.11.13.17.13.03.03.15.11.10.11c.07.05.14.13.19.21l.02.04c.08.10.13.23.13.37.01.12.04.28-.01.49l.05.05.11.14.11.13.02.02.06.07.08.05.02.01.02.00.10.02.13-.05.19-.11.03-.01.05-.03.10-.05c.17-.06.38-.07.63-.05l.13.00.25-.12c.13-.07.27-.15.44-.21l.16-.03.15-.01.16-.03.11-.01.09-.03.13-.03.11-.02.19-.03h.01l.16-.02.09-.02.06-.00.08-.03.19-.06.00-.00.00-.00.21-.07.02-.01.12-.05.09-.05.09-.06.14-.06.00-.00.14-.07c.47-.16.96.17 1.10.5.09.20.07.40.07.52.10.44.00.84-.07 1.12v.10l-.00.09-.08.52c-.01.1-.05.19-.11.26l-.02.03-.04.08-.01.02-.00.00-.06.14.00.00-.09.20-.01.02-.01.03-.04.14-.11.20-.11.18-.00.00-.00.01-.01.02-.02.08-.00.05c-.01.09-.05.18-.10.26v.00l-.11.20v.00c-.03.08-.08.18-.15.27l-.05.14-.03.08-.03.2-.03.12c-.01.09-.05.17-.10.25l-.03.09-.02.07-.07.15-.09.19c-.03.08-.08.15-.14.22l-.04.05-.04.06-.05.08-.07.13-.07.13-.04.07c-.03.09-.09.17-.16.24l-.05.08-.11.15-.07.10-.08.11-.07.09-.15.17-.00.00-.11.15-.12.10-.11.15-.32.30-.12.17-.15.13-.00-.00-.14.12c-.07.09-.16.16-.27.20l-.14.11-.09.06-.14.10-.11.06-.18.11-.13.10-.01.01c-.05.06-.12.12-.20.16l-.15.17-.15.11-.07.08-.24.22-.13.17-.06.05-.12.16-.12.11-.13.17-.04.04-.03.05c-.03.07-.09.14-.16.20l-.07.1-.12.15-.02.03-.11.16-.04.06c-.02.08-.07.16-.14.23l-.09.11-.06.08-.08.10-.00.00c-.06.12-.16.22-.28.28l-.20.22-.18.13-.08.06-.18.13-.00.00-.01.02-.03.11-.08.16-.04.09-.00.02-.07.21c-.02.08-.06.15-.12.22h.00l-.02.08-.10.19-.00.00-.02.07c-.03.09-.08.17-.14.24-.03.08-.08.16-.14.22l-.00.01-.03.10-.06.13-.05.12-.00.01-.02.08-.00.00-.03.20.00.00c.06.06.12.14.15.22l.00.01.03.05.08.14.05.12.01.04c.07.23.04.47-.00.71l.00.08v.35l-.02.17-.01.09.02.08.02.07.02.08.02.07.02.08.03.13.03.19.06.19.00.00.05.04c.16.16.49.49.54.98l-.00.14-.07.42-.00 1.20-.02.15-.02.14.04.21v.35c.11.42.13.75.05.99l-.07.15-.00.00-.01.05-.03.11-.02.07-.07.16c-.02.07-.07.14-.13.21l-.06.08-.14.16v.00l-.12.14-.04.03-.14.17-.28.28c-.06.06-.13.11-.21.15l-.13.09c-.06.06-.14.10-.23.14l-.11.05-.04.01-.18.08-.14.05-.07.02-.09.03-.07.02-.07.02-.13.05-.09.04-.03.00-.07.04-.11.05-.09.03c-.1.07-.18.16-.29.27l-.2.18-.12.16-.14.12c-.07.10-.17.17-.28.22-.07.07-.15.13-.24.15l-.10.05-.02.01-.10.10-.15.12-.07.08-.15.12-.08.07.00.01.06.12.03.13.02.17.06.20.01.17.10.36.06.23c.10.36-.01 1.09-.05 1.22l-.00.02-.02.08v.00l-.04.23-.01.16c-.01.12-.06.23-.13.32-.04.10-.10.20-.18.26l-.11.11c-.05.07-.12.12-.2.16l-.16.08-.11.05-.21.08-.01.00-.00.00-.17.07-.09.02-.18.06-.01.00-.01.00-.18.07-.01.00-.03.01-.13.05-.14.05-.06.04.00.03c.04.17.09.40.02.66l-.14.47-.10.20-.03.08-.02.07c-.00.11-.03.21-.08.30l-.00.04-.08.21-.09.17-.09.12-.13.14-.01.02-.18.15-.08.06-.17.11-.08.04-.03.02-.04.05-.07.07-.08.10-.10.13-.06.08-.07.12-.04.06-.07.11-.02.03-.11.16-.02.04-.09.13-.11.14-.13.15-.06.05-.15.17-.15.12-.14.11-.07.05-.02.01-.02.03c-.05.06-.11.11-.18.15l-.31.31c-.05.06-.11.12-.18.16l-.15.12-.08.06-.18.12c-.06.06-.14.12-.23.15l-.01.00-.08.05-.19.13-.08.05-.17.1-.12.05-.03.01-.18.08-.20.07-.41.05-.05.02-.03.01-.10.05-.06.03-.05.02-.13.05c-.07.03-.14.04-.22.04h-.14c-.33.07-.72.06-1.09-.02h-.10l-.17.02h-.52l-.08.01-.05.01-.08.02-.13.05-.14.05-.15.03-.67.07-.05.02c-.17.08-.44.21-.76.21"/>
        <path fill="black" d="M19.81 40.97l-2.25.01c-1.58.02-2.73.05-3.46.10-.65.06-1.11.08-1.39.08-.68 0-1.22-.18-1.63-.54-.39-.36-.58-.79-.58-1.29 0-.32.07-.58.21-.76.14-.18.49-.47 1.05-.87.32-.23.55-.59.67-1.09.12-.49.25-1.56.40-3.19.21-2.54.32-5.67.32-9.38 0-1.36-.08-2.27-.26-2.72-.17-.44-.57-.81-1.21-1.11-.74-.32-1.11-.80-1.11-1.43 0-.51.22-.93.66-1.25.44-.32 1.01-.49 1.70-.49.38 0 .86.01 1.46.05.98.04 2.05.06 3.19.06.84 0 2.49-.03 4.96-.10.77-.02 1.47-.03 2.10-.03 1.49 0 2.69.12 3.60.37.91.25 1.70.67 2.38 1.27 1.1.96 1.64 2.26 1.64 3.88 0 .80-.16 1.58-.48 2.35-.32.76-.76 1.37-1.31 1.82-.39.32-.59.62-.59.89 0 .29.23.53.70.73.91.38 1.75 1.03 2.50 1.94.77.94 1.16 2.12 1.16 3.55 0 1.67-.58 3.21-1.76 4.59-1.55 1.83-3.86 2.74-6.91 2.74-.41 0-1.43-.03-3.06-.08l-2.72-.10m1.16-18.97v3.60c0 .57.07.97.21 1.20.14.23.38.35.73.35.82 0 1.44-.26 1.83-.79.39-.53.59-1.36.59-2.49 0-1.09-.20-1.94-.60-2.54-.40-.6-.97-.90-1.71-.90-.39 0-.66.11-.81.34-.15.22-.22.63-.22 1.23m0 10.07v1.66c0 1.52.10 2.54.32 3.04.21.50.64.75 1.29.75 1.70 0 2.55-1.03 2.55-3.11 0-2.58-.95-3.88-2.86-3.88-.49 0-.83.11-1.02.33-.19.22-.28.62-.28 1.20 M43.21 24.56v9.47c0 2.02.64 3.04 1.93 3.04.32 0 .64-.09.95-.28.31-.19.53-.42.65-.70.24-.56.37-1.80.37-3.74 0-1.91-.06-3.21-.18-3.91-.04-.29-.12-.50-.23-.63-.11-.13-.32-.29-.63-.46-.64-.35-.96-.79-.96-1.32 0-.72.55-1.22 1.64-1.50 2.08-.53 4.14-.80 6.17-.80 1.13 0 1.69.62 1.69 1.87l-.01.78c-.02.56-.04 1.24-.05 2.04v7.71c0 .39.32.75.97 1.08.55.27.82.68.82 1.22 0 1.04-1.19 1.85-3.58 2.43-1.40.33-2.75.50-4.07.50-.53 0-.90-.06-1.10-.19-.19-.12-.31-.37-.34-.75-.05-.72-.27-1.08-.64-1.08-.13 0-.25.03-.36.09-.11.06-.45.30-1.02.70-1.13.80-2.35 1.20-3.65 1.20-2.15 0-3.67-.64-4.55-1.93-.75-1.08-1.12-2.90-1.12-5.47 0-.95.00-1.77.01-2.44v-.80c0-1.00-.08-1.73-.26-2.21-.17-.47-.49-.84-.95-1.11-.43-.23-.71-.42-.83-.56-.11-.14-.17-.33-.17-.57 0-.88.64-1.47 1.93-1.76 2.19-.5 4.39-.75 6.59-.75.66-.00.99.29.99.87 M66.69 24.77v10.15c0 .80.06 1.39.21 1.76.14.37.42.71.84 1.03.34.25.58.47.69.65.11.18.17.41.17.69 0 1.50-1.83 2.25-5.5 2.25-1.97 0-3.53-.16-4.69-.49-.39-.11-.71-.31-.95-.61-.24-.29-.36-.62-.36-.99 0-.31.06-.56.18-.73.12-.17.43-.45.94-.84.34-.26.59-.70.73-1.31.14-.60.22-1.51.22-2.71 0-.38-.02-1.10-.07-2.16-.05-1.05-.08-1.67-.10-1.84-.06-.47-.38-.84-.94-1.10-.69-.31-1.04-.78-1.04-1.39 0-.73.45-1.28 1.36-1.64 1.25-.50 2.60-.92 4.03-1.27 1.43-.34 2.54-.52 3.33-.52.61 0 .92.36.92 1.08 M78.54 27.12v5.61c0 2.48.03 3.92.10 4.33.07.40.35.72.83.94.41.18.69.36.83.52.14.16.20.39.20.7 0 .38-.13.73-.39 1.05-.26.31-.61.53-1.04.66-.80.25-2.17.38-4.08.38-2.16 0-3.68-.16-4.55-.50-.40-.15-.73-.38-.99-.70-.25-.31-.38-.65-.38-1.00 0-.28.07-.49.21-.64.14-.15.44-.33.91-.54.43-.19.70-.74.80-1.62.18-1.51.27-3.67.27-6.47 0-2.84-.07-4.67-.23-5.49-.15-.81-.55-1.42-1.17-1.81-.47-.27-.79-.54-.96-.79-.17-.25-.26-.55-.26-.91 0-.57.26-1.06.79-1.49.52-.42 1.36-.81 2.52-1.18.77-.24 1.77-.47 3.01-.69 1.23-.22 2.13-.33 2.68-.33.88 0 1.33.57 1.33 1.71 0 .37-.05 1.22-.16 2.56-.14 2.08-.22 4-.25 5.73 M99.80 18.51v15.96c0 .90.03 1.49.10 1.74.07.25.27.50.61.75.40.29.67.54.81.77.13.22.21.49.21.80 0 .93-.90 1.64-2.70 2.13-1.62.43-3.25.64-4.87.64-.35 0-.59-.05-.69-.16-.10-.11-.17-.37-.21-.79-.05-.59-.25-.89-.60-.89-.19 0-.48.17-.89.52-1.14.96-2.41 1.45-3.81 1.45-1.73 0-3.30-.67-4.69-2.01-.81-.80-1.48-1.73-1.98-2.78-.67-1.36-1.00-2.74-1.00-4.14 0-1.64.43-3.22 1.31-4.75.80-1.40 1.90-2.49 3.29-3.25 1.16-.62 2.31-.94 3.44-.94 1.30 0 2.46.30 3.49.90.16.09.30.14.40.14.35 0 .53-.50.53-1.50 0-.43-.09-.76-.29-.98-.19-.22-.54-.42-1.05-.58-.70-.23-1.06-.64-1.06-1.22 0-.85.81-1.51 2.43-1.99 2.87-.82 4.79-1.24 5.77-1.24.96 0 1.44.47 1.44 1.43m-9.13 8.79c-.72 0-1.30.40-1.73 1.20-.57 1.07-.85 2.48-.85 4.23 0 1.58.27 2.78.82 3.58.39.58.92.87 1.59.87.72 0 1.25-.44 1.58-1.32.33-.88.49-2.3.49-4.25 0-1.79-.19-2.99-.58-3.58-.30-.46-.74-.71-1.32-.73 M55.14 47.13l1.22 2.70c.11.25.21.41.29.49.07.07.19.13.35.15.31.04.46.21.46.48 0 .32-.19.55-.57.70-.38.14-1.00.21-1.87.21-.97 0-1.70-.04-2.17-.12-.21-.04-.39-.12-.51-.24-.12-.12-.19-.27-.19-.44 0-.13.03-.23.10-.31.06-.07.19-.14.37-.20.20-.07.30-.19.30-.36 0-.29-.17-.47-.52-.52-.37-.05-.90-.08-1.59-.08-.57 0-.91.03-1.03.10-.06.04-.13.12-.18.24-.05.11-.07.22-.07.33 0 .09.02.16.05.19.03.02.15.07.36.14.26.08.39.24.39.48 0 .52-.61.79-1.85.79-.70 0-1.21-.04-1.54-.14-.30-.09-.45-.29-.45-.61 0-.13.03-.24.10-.31.06-.07.18-.14.36-.20.28-.10.49-.24.63-.43.14-.18.35-.57.62-1.18l.91-2.06c.33-.75.56-1.32.67-1.7.11-.37.17-.74.18-1.10.00-.38.02-.64.06-.79.04-.14.13-.29.27-.43.29-.31.67-.46 1.14-.46.43 0 .85.17 1.25.52.55.48 1.35 1.88 2.41 4.20m-4.51.84h1.27c.23 0 .35-.05.35-.15 0-.14-.16-.50-.48-1.08-.14-.26-.26-.43-.33-.52-.07-.08-.16-.13-.24-.13-.15 0-.28.14-.39.44l-.18.47c-.18.45-.27.72-.27.81 0 .11.1.16.29.16 M62.51 44.01c-.29 0-.48.07-.55.23-.05.11-.10.34-.14.68-.04.33-.06.64-.06.92 0 .16.05.27.15.34.10.06.3.09.58.09.19 0 .33-.03.42-.10.09-.07.15-.18.18-.35.09-.48.30-.72.60-.72.52 0 .79.65.79 1.94 0 .82-.11 1.42-.34 1.81-.13.23-.32.35-.57.35-.25 0-.40-.17-.44-.52-.02-.22-.04-.38-.08-.48-.03-.09-.09-.18-.18-.26-.14-.13-.35-.20-.62-.20-.19 0-.32.03-.39.10-.06.07-.1.20-.09.40l-.00.62c0 .77.07 1.23.23 1.40l.15.13c.05.02.19.04.42.08.11.01.20.07.28.17.07.10.11.22.11.35 0 .34-.19.56-.58.66-.56.13-1.35.20-2.37.20-.89 0-1.50-.05-1.84-.15-.15-.05-.27-.13-.37-.26-.09-.12-.14-.27-.14-.42 0-.19.06-.35.20-.47.03-.02.15-.08.35-.16.24-.09.38-.32.43-.68.07-.54.11-1.79.11-3.74 0-.84-.02-1.38-.08-1.63-.05-.24-.19-.42-.40-.52-.21-.09-.35-.18-.42-.25-.06-.07-.10-.17-.10-.31 0-.19.09-.35.27-.49.18-.13.41-.19.69-.19.17 0 .42.01.75.04.70.05 1.54.08 2.53.08 1.57 0 2.63-.04 3.17-.13l.16-.01c.15 0 .29.08.43.26.38.49.56 1.05.56 1.65 0 .27-.06.49-.18.66-.12.16-.29.24-.49.24-.15 0-.26-.03-.34-.09-.07-.06-.27-.28-.59-.65-.19-.23-.43-.38-.70-.45-.27-.07-.78-.11-1.53-.13 M70.79 47.91c-.16 0-.26.05-.31.15-.04.10-.06.34-.06.71 0 .56.03 1.00.10 1.32.02.09.05.15.09.20.04.04.12.10.24.18.25.14.39.34.39.58 0 .29-.18.50-.54.62-.36.12-.97.18-1.83.18-1.60 0-2.40-.31-2.40-.93 0-.10.02-.19.07-.25.04-.06.15-.15.32-.27.19-.13.31-.28.38-.45.06-.17.11-.47.14-.91.02-.31.03-1.44.03-3.39 0-.62-.02-1.04-.09-1.26-.06-.22-.19-.38-.39-.48-.18-.09-.31-.18-.38-.25-.06-.07-.09-.18-.09-.30 0-.16.06-.30.18-.43.12-.12.29-.21.51-.26.18-.05.44-.07.76-.07.14 0 .5.02 1.07.06l.51.01c.38 0 .90-.02 1.55-.08.41-.03.69-.04.86-.04.92 0 1.69.22 2.29.68.54.41.81.98.81 1.72 0 .41-.09.78-.28 1.11-.19.33-.45.59-.78.75-.13.07-.20.15-.20.25 0 .12.10.23.31.31.45.16.78.42 1.00.76.21.34.36.86.45 1.57.03.29.09.48.17.57.07.08.24.17.51.25.08.02.15.08.20.17.05.08.08.18.08.28 0 .13-.05.27-.15.41-.10.14-.23.25-.40.33-.36.17-.86.26-1.49.26-.84 0-1.44-.22-1.81-.68-.16-.20-.30-.46-.42-.77-.11-.31-.24-.79-.40-1.45-.10-.42-.22-.72-.38-.89-.15-.17-.37-.26-.66-.28m-.37-3.40l-.07 1.55v.06c0 .16.02.26.06.31.04.05.13.08.27.08.38 0 .65-.10.83-.30.17-.20.26-.52.26-.97 0-.85-.29-1.28-.89-1.28-.16 0-.28.03-.35.12-.06.08-.10.22-.11.42 M79.65 42.49c.49 0 .95.04 1.39.13.58.12.88.37.88.76 0 .12-.02.22-.08.29-.06.06-.20.15-.44.28-.19.10-.33.32-.39.67-.06.34-.09 1.02-.09 2.03 0 1.7.04 2.75.12 3.15.03.12.07.22.14.29.06.06.17.14.32.22.28.13.42.32.42.58 0 .35-.26.6-.79.73-.57.14-1.27.21-2.09.21-1.40 0-2.11-.27-2.11-.82 0-.2.13-.38.41-.56.21-.13.33-.31.37-.54.08-.50.12-1.58.12-3.23 0-1.14-.05-1.87-.16-2.19-.06-.18-.20-.34-.43-.49-.17-.12-.29-.22-.35-.30-.06-.08-.09-.18-.09-.30 0-.19.09-.34.27-.45.17-.11.49-.21.95-.30.54-.11 1.08-.16 1.64-.16 M86.78 42.44c.63 0 1.24.14 1.83.42.27.13.46.20.57.20.07 0 .20-.02.37-.06l.18-.02c.22 0 .42.10.59.32.41.51.62 1.15.62 1.92 0 .53-.18.93-.53 1.18-.19.13-.41.2-.65.2-.22 0-.4-.04-.54-.14-.13-.09-.27-.27-.4-.51-.18-.35-.33-.60-.45-.75-.11-.15-.26-.29-.43-.41-.42-.30-.85-.45-1.31-.45-.44 0-.79.16-1.06.49-.26.33-.39.77-.39 1.33 0 .76.18 1.46.56 2.10.51.85 1.24 1.27 2.19 1.27.35 0 .69-.06 1.04-.18.34-.12.61-.27.80-.46.16-.16.29-.24.40-.24.15 0 .27.07.38.21.10.14.16.32.16.52 0 .25-.07.54-.22.86-.15.32-.33.57-.54.75-.09.07-.27.14-.56.20-.16.03-.38.11-.65.24-.64.31-1.30.47-1.99.47-.72 0-1.44-.16-2.16-.50-.83-.38-1.49-.98-1.98-1.78-.47-.77-.71-1.59-.71-2.44 0-.98.29-1.88.89-2.70.52-.70 1.19-1.24 2.03-1.62.63-.28 1.29-.42 1.96-.42 M99.12 47.13l1.22 2.70c.11.25.21.41.29.49.07.07.19.13.35.15.31.04.46.21.46.48 0 .32-.19.55-.57.70-.38.14-1.00.21-1.87.21-.97 0-1.70-.04-2.17-.12-.21-.04-.38-.12-.51-.24-.12-.12-.19-.27-.19-.44 0-.13.03-.23.1-.31.06-.07.19-.14.37-.20.20-.07.30-.19.30-.36 0-.29-.17-.47-.52-.52-.37-.05-.90-.08-1.59-.08-.57 0-.92.03-1.03.10-.06.04-.12.12-.18.24-.05.11-.07.22-.07.33 0 .09.01.16.05.19.03.02.15.07.36.14.26.08.39.24.39.48 0 .52-.61.79-1.84.79-.70 0-1.21-.04-1.54-.14-.30-.09-.45-.29-.45-.61 0-.13.03-.24.10-.31.06-.07.18-.14.35-.20.28-.10.49-.24.64-.43.14-.18.35-.57.61-1.18l.91-2.06c.33-.75.56-1.32.68-1.7.11-.37.17-.74.17-1.10.00-.38.02-.64.06-.79.04-.14.13-.29.27-.43.29-.31.68-.46 1.14-.46.43 0 .85.17 1.25.52.55.48 1.35 1.88 2.41 4.20m-4.51.84h1.27c.23 0 .35-.05.35-.15 0-.14-.16-.50-.48-1.08-.14-.26-.25-.43-.33-.52-.07-.08-.16-.13-.24-.13-.15 0-.28.14-.39.44l-.18.47c-.18.45-.27.72-.27.81-.00.11.09.16.29.16"/>
</svg>
